<?xml version="1.0" encoding="UTF-8"?>
<svg version="1.1" xmlns="http://www.w3.org/2000/svg" width="1337" height="710">
<path d="M0 0 C1.82265347 0.01224102 3.64531172 0.02378621 5.46797371 0.03468418 C25.68046167 0.18846239 45.88375971 0.80120252 66.08540869 1.44597697 C71.44027396 1.61552802 76.79536033 1.77781892 82.15042114 1.9410553 C91.11375771 2.21523338 100.07694597 2.49385785 109.04003906 2.77587891 C121.5917167 3.17080875 134.14363715 3.55754206 146.69561934 3.94265354 C156.57300532 4.24597525 166.45032985 4.5512919 176.32763672 4.85717773 C177.88114971 4.90528567 177.88114971 4.90528567 179.46604681 4.95436549 C190.84444641 5.30706507 202.22268393 5.66398042 213.60050738 6.03484422 C218.17198795 6.18338726 222.74357411 6.3252502 227.31552637 6.45847243 C230.42275677 6.55038049 233.52971026 6.65091211 236.63671875 6.75 C237.69010374 6.77815513 238.74348873 6.80631025 239.82879448 6.83531857 C252.22004097 7.25218511 261.73298274 10.22557235 270.66357422 19.07983398 C280.03924862 29.18925682 284.0296354 39.28368234 284.58544922 52.95483398 C284.62637695 53.93291016 284.66730469 54.91098633 284.70947266 55.91870117 C284.93579116 62.93924124 284.59809426 69.43840379 282.83544922 76.26733398 C282.55894531 77.56477539 282.55894531 77.56477539 282.27685547 78.88842773 C279.94436543 88.40672561 273.69085586 95.6151502 265.83544922 101.26733398 C260.38778771 104.40391172 254.6336689 106.4814744 248.71044922 108.51733398 C234.17664374 113.72748604 221.09664047 120.76542997 211.69287109 133.42163086 C211.15658081 134.14185425 210.62029053 134.86207764 210.06774902 135.60412598 C209.66109009 136.15298462 209.25443115 136.70184326 208.83544922 137.26733398 C216.34217213 137.49662231 223.84798418 137.65358977 231.35742188 137.76171875 C233.90854636 137.80681847 236.45944029 137.86811754 239.00976562 137.94628906 C242.68921894 138.05619854 246.36558436 138.10666592 250.04638672 138.14624023 C251.17595795 138.1926918 252.30552917 138.23914337 253.46932983 138.28700256 C260.03893325 138.29113624 263.48196962 137.32579218 268.43554688 132.87988281 C269.91827305 131.35787919 271.38704099 129.82203187 272.83544922 128.26733398 C304.31180755 100.54742865 346.08461399 86.05177068 387.64794922 86.01733398 C388.74734833 86.01632187 388.74734833 86.01632187 389.86895752 86.01528931 C401.74292312 86.03261057 413.21840576 86.67294458 424.83544922 89.26733398 C425.63047852 89.44425781 426.42550781 89.62118164 427.24462891 89.8034668 C462.08543751 97.81809857 493.20819636 115.42284163 518.83544922 140.26733398 C519.39474121 140.80084473 519.9540332 141.33435547 520.53027344 141.8840332 C554.06315671 173.93684438 575.53879929 216.54135402 586.14794922 261.39233398 C586.37828857 262.35478027 586.60862793 263.31722656 586.84594727 264.30883789 C591.21368216 283.78332557 592.38119502 303.04682931 592.27294922 322.95483398 C592.26990784 324.14321869 592.26686646 325.33160339 592.26373291 326.55599976 C592.19850279 343.78907285 591.62525394 360.3951119 587.83544922 377.26733398 C587.6158252 378.314375 587.39620117 379.36141602 587.16992188 380.44018555 C579.02392697 419.07745227 562.6065985 457.03488078 536.83544922 487.26733398 C535.88856933 488.39862239 534.9419767 489.53015127 533.99560547 490.66186523 C525.06788518 501.27465181 515.73974367 510.65177513 504.83544922 519.26733398 C503.87123047 520.06010742 502.90701172 520.85288086 501.91357422 521.66967773 C462.17620475 553.59068645 412.93023018 564.61700817 363.01098633 559.56445312 C360.89557514 559.27554555 358.89425052 558.8267495 356.83544922 558.26733398 C356.90111084 559.05132568 356.96677246 559.83531738 357.03442383 560.64306641 C358.12667634 574.168342 358.54507812 587.70487923 358.83544922 601.26733398 C358.85325439 602.09031982 358.87105957 602.91330566 358.8894043 603.76123047 C358.99918449 609.07128343 359.07647775 614.3807428 359.12155151 619.69174194 C359.13893503 621.42898794 359.16311406 623.16618132 359.1946106 624.90322876 C359.47513036 641.17909186 357.0375059 655.68569312 345.52294922 668.07983398 C342.50193301 670.88552938 339.41424043 672.99552138 335.7097168 674.80297852 C332.73463714 676.27020931 332.73463714 676.27020931 329.63134766 678.23901367 C316.62838195 685.80336585 303.70865825 685.2869929 289.01995087 685.09948349 C285.47999056 685.06570907 281.94040581 685.08407278 278.40039062 685.10253906 C277.6783589 685.10628005 276.95632717 685.11002104 276.2124157 685.11387539 C274.74036506 685.1218125 273.26831594 685.13003443 271.79626846 685.13853645 C269.55834251 685.15020636 267.32043544 685.15743139 265.08248901 685.16392517 C250.10869333 685.21817385 235.1682082 685.75724235 220.21044922 686.45483398 C219.54515953 686.48539635 218.87986984 686.51595871 218.19441986 686.5474472 C169.84330916 688.77121994 121.510105 691.965995 73.24169922 695.54467773 C71.95011902 695.6402446 70.65853882 695.73581146 69.32781982 695.83427429 C63.61473367 696.25965006 57.90270565 696.69499732 52.19189453 697.14990234 C19.18780387 699.73424338 19.18780387 699.73424338 8.89794922 696.20483398 C8.2025 695.9829541 7.50705078 695.76107422 6.79052734 695.5324707 C0.48984089 693.39671901 -4.84538088 690.25456312 -10.16455078 686.26733398 C-10.95216797 685.71045898 -11.73978516 685.15358398 -12.55126953 684.57983398 C-22.06986823 677.5984509 -30.90547131 668.27146214 -33.16455078 656.26733398 C-34.19964829 645.98187139 -32.59539227 639.86904896 -27.16455078 631.26733398 C-25.496467 628.17980372 -23.90949359 625.0489448 -22.32080078 621.91992188 C-20.39045625 618.23641664 -18.21905624 614.87417468 -15.79345703 611.49389648 C1.89144443 586.59278273 13.84649787 553.86152079 20.83544922 524.26733398 C21.11138916 523.17050293 21.3873291 522.07367187 21.67163086 520.94360352 C24.52712717 508.12194733 24.17090065 495.34289101 24.02294922 482.26733398 C24.0078672 479.93140516 23.99418506 477.59546687 23.98193359 475.25952148 C23.9492255 469.59524861 23.89930826 463.93133694 23.83544922 458.26733398 C23.17013184 459.34547363 22.50481445 460.42361328 21.81933594 461.53442383 C20.92641361 462.97412908 20.03333907 464.41373994 19.14013672 465.85327148 C18.70403076 466.56088623 18.2679248 467.26850098 17.81860352 467.99755859 C5.50835735 487.80099807 -10.77342687 506.00288249 -29.16455078 520.26733398 C-29.69612793 520.68595703 -30.22770508 521.10458008 -30.77539062 521.53588867 C-61.73093662 545.77915808 -98.85544022 559.73144688 -138.16455078 561.26733398 C-139.08623047 561.30858398 -140.00791016 561.34983398 -140.95751953 561.39233398 C-179.32453987 562.25816237 -218.24069806 549.9331124 -249.16455078 527.26733398 C-250.21642578 526.49905273 -251.26830078 525.73077148 -252.35205078 524.93920898 C-260.07617175 519.19352302 -267.22225005 512.92904324 -274.16455078 506.26733398 C-275.11458984 505.35854492 -276.06462891 504.44975586 -277.04345703 503.51342773 C-313.91505914 467.46233416 -333.95750924 419.00600591 -344.16455078 369.26733398 C-346.08523893 373.22372715 -348.00022345 377.1828597 -349.91455078 381.14233398 C-350.43404297 382.21225586 -350.95353516 383.28217773 -351.48876953 384.38452148 C-352.34730976 386.16220479 -353.20322611 387.94152921 -354.01986694 389.73884583 C-355.86695977 393.76552979 -357.90804358 397.50066918 -360.26464844 401.25439453 C-372.70675658 422.41275328 -370.63406855 445.18002687 -370.10510254 468.95709229 C-370.01709138 473.48540563 -369.98263361 478.01342298 -369.95055962 482.54242802 C-369.91131252 487.98349472 -369.85046731 493.42422286 -369.78173828 498.86499023 C-369.76888668 499.8867592 -369.75603508 500.90852818 -369.74279404 501.96125984 C-369.70056067 504.86188754 -369.64402721 507.76184384 -369.58203125 510.66210938 C-369.57036926 511.5052771 -369.55870728 512.34844482 -369.54669189 513.21716309 C-369.21163175 526.5484419 -364.86799727 536.96739716 -355.16455078 546.26733398 C-345.21655015 554.72216493 -332.40552007 560.42380764 -320.60205078 565.82983398 C-307.16691665 572.51223054 -300.10157619 584.67576204 -295.16455078 598.26733398 C-291.9005665 608.24520997 -293.58809364 621.07617632 -298.16455078 630.26733398 C-300.60145851 634.13891391 -303.29541317 637.7084441 -306.16455078 641.26733398 C-306.58607422 641.85256836 -307.00759766 642.43780273 -307.44189453 643.04077148 C-315.93145577 654.460893 -330.06186421 658.04559075 -343.25341797 660.92675781 C-344.31076645 661.16394185 -345.36811493 661.40112589 -346.45750427 661.64549732 C-349.95729942 662.42874519 -353.45931206 663.20155635 -356.96142578 663.97436523 C-359.46940259 664.53348345 -361.97723201 665.09326315 -364.48492432 665.65365601 C-369.83860989 666.84856466 -375.19324341 668.03906821 -380.54882812 669.22543335 C-388.2472018 670.9307964 -395.94375834 672.64424193 -403.63984394 674.35989773 C-415.11259781 676.91736564 -426.58635034 679.47031197 -438.06090832 682.01967227 C-454.77030624 685.73219123 -471.4760373 689.4609034 -488.18017578 693.19702148 C-490.60170257 693.73853079 -493.02323167 694.28002975 -495.44476318 694.82151794 C-498.959441 695.60746688 -502.4741162 696.39342752 -505.98878098 697.17943478 C-516.87207215 699.61327778 -527.75560499 702.04603474 -538.63988495 704.47545242 C-540.54856615 704.90156544 -542.45720281 705.32787799 -544.36579132 705.75440598 C-546.95224112 706.33239653 -549.53884331 706.90970004 -552.12548828 707.48681641 C-552.87454311 707.65436337 -553.62359795 707.82191034 -554.39535141 707.99453449 C-570.47107185 711.57759383 -582.85334909 711.0758193 -597.13330078 702.35327148 C-607.9455364 694.91289285 -616.23355406 686.27614133 -619.16455078 673.26733398 C-621.64982876 658.73801655 -618.23475807 643.13789054 -610.47705078 630.57983398 C-604.58307135 622.35465374 -597.38217984 617.68180974 -588.49658203 613.09936523 C-562.97235988 599.06553149 -544.23759696 571.31209014 -536.09033203 543.75952148 C-535.78482422 542.60709961 -535.47931641 541.45467773 -535.16455078 540.26733398 C-534.69082031 538.63151367 -534.69082031 538.63151367 -534.20751953 536.96264648 C-520.51478664 481.81657153 -556.45228586 422.26337899 -582.75439453 376.26733398 C-586.60900142 369.51526651 -590.35607742 362.70496259 -594.10205078 355.89233398 C-600.8265187 343.67189899 -607.61764559 331.49020222 -614.44677734 319.32788086 C-616.77112794 315.18659901 -619.09129571 311.04298138 -621.41113281 306.89916992 C-622.57581579 304.81889239 -623.74085227 302.73881274 -624.90625 300.65893555 C-627.87824844 295.3544721 -630.84560171 290.04749071 -633.80517578 284.73608398 C-636.72164946 279.50363329 -639.65336423 274.27998889 -642.59521484 269.06176758 C-644.02363278 266.51825922 -645.43512016 263.96609183 -646.84423828 261.41186523 C-664.01238371 230.72262336 -693.88566013 211.74328677 -723.08642578 193.58374023 C-733.12477418 187.20271891 -738.35367976 179.41599979 -742.16455078 168.26733398 C-742.48294922 167.49131836 -742.80134766 166.71530273 -743.12939453 165.91577148 C-747.29577323 154.74142862 -746.65391335 141.02813998 -741.84814453 130.23217773 C-738.89047111 125.02365307 -735.21446299 120.65532582 -731.16455078 116.26733398 C-730.59865234 115.59831055 -730.03275391 114.92928711 -729.44970703 114.23999023 C-722.54239921 106.52204482 -711.96534664 101.92929807 -701.7057457 101.0586834 C-698.88946331 100.95029623 -696.07799838 100.90077852 -693.25976562 100.87255859 C-692.1895218 100.8543487 -691.11927797 100.8361388 -690.01660252 100.81737709 C-686.46964088 100.75926261 -682.92264148 100.71444441 -679.37548828 100.66967773 C-676.86331449 100.63117548 -674.35115324 100.59184691 -671.83900452 100.55174255 C-665.81709336 100.45768002 -659.79511804 100.37210241 -653.77302879 100.29057568 C-646.84308958 100.19634413 -639.91331523 100.09193915 -632.98353374 99.98683596 C-621.35109541 99.81063382 -609.71856573 99.64191205 -598.0859375 99.47875977 C-586.45451181 99.31557095 -574.82329382 99.14213591 -563.19216919 98.95882607 C-557.02027692 98.86188607 -550.84833838 98.76793034 -544.67639923 98.6740303 C-542.64768461 98.64303128 -540.61897764 98.61156399 -538.590271 98.58004761 C-531.34646742 98.46922391 -524.10291227 98.37944493 -516.85858154 98.31164551 C-513.52849355 98.27169964 -510.19963212 98.21164981 -506.8700285 98.14466667 C-503.99075412 98.09103291 -501.11141284 98.05532014 -498.23182869 98.02296829 C-496.21602813 97.99499046 -494.20054913 97.94620553 -492.18516541 97.89657593 C-475.56120073 97.751454 -464.46987024 103.23443639 -452.47705078 114.32983398 C-443.16580271 123.8656086 -438.88589812 134.81496751 -438.92016602 148.06323242 C-439.13282484 160.38910442 -444.54251935 169.20936706 -451.18798828 179.35717773 C-462.02895931 196.15860601 -467.50402144 214.28151702 -463.62988281 234.27563477 C-462.34298926 239.78375522 -460.30412359 245.0408966 -458.16455078 250.26733398 C-443.62541964 223.36659134 -429.99196311 195.87485103 -420.60205078 166.70483398 C-420.36228516 165.96152832 -420.12251953 165.21822266 -419.87548828 164.45239258 C-417.50381083 156.72136315 -416.34782437 150.49596361 -419.74267578 142.90405273 C-428.67842931 126.33363066 -444.03275789 112.00911106 -458.63330078 100.34545898 C-469.86130018 91.12741009 -481.5144488 78.24943166 -483.74267578 63.41967773 C-484.11772466 50.2527831 -480.06280747 40.97934712 -471.45092773 31.3515625 C-466.51452818 26.1638412 -461.42129132 22.70672088 -455.10205078 19.39233398 C-454.24289062 18.92053711 -453.38373047 18.44874023 -452.49853516 17.96264648 C-442.67289464 12.67826839 -434.85354031 11.95559735 -423.765625 12.05322266 C-422.26907816 12.06005537 -420.77253109 12.06683721 -419.27598381 12.07357311 C-399.1468637 12.20349172 -379.02603701 12.91560092 -358.90915537 13.58204293 C-355.50612365 13.69447778 -352.10304519 13.80537786 -348.69994736 13.91579247 C-336.78788423 14.30241372 -324.87603687 14.6950586 -312.96435547 15.09326172 C-301.91363892 15.4625092 -290.86252776 15.81768793 -279.81115448 16.166673 C-270.25335983 16.46914666 -260.69592631 16.78164527 -251.13870895 17.10183781 C-245.45932687 17.29192952 -239.77988548 17.4780065 -234.10004044 17.65377235 C-228.7788542 17.81875578 -223.4582283 17.99625769 -218.1377697 18.18320084 C-216.1949614 18.24936878 -214.25199795 18.31115945 -212.30889702 18.36808968 C-197.81838682 18.79645126 -185.40427943 19.73173374 -173.16455078 28.26733398 C-172.38080078 28.79327148 -171.59705078 29.31920898 -170.78955078 29.86108398 C-161.77648648 36.31638679 -155.87387812 45.06734409 -153.60595703 55.94702148 C-153.06272604 60.03327234 -152.98048763 64.02498387 -152.97705078 68.14233398 C-152.96480469 68.90674805 -152.95255859 69.67116211 -152.93994141 70.45874023 C-152.92654685 75.71833598 -153.7077732 80.21179757 -155.16455078 85.26733398 C-154.33020508 85.2819165 -153.49585938 85.29649902 -152.63623047 85.31152344 C-102.10326301 86.29507432 -58.4833588 99.09700091 -20.16455078 133.26733398 C-19.61541016 134.01756836 -19.06626953 134.76780273 -18.50048828 135.54077148 C-14.49086983 138.50440252 -9.76379663 137.94964147 -4.91455078 138.01733398 C-3.88330078 138.04698242 -2.85205078 138.07663086 -1.78955078 138.10717773 C0.75219416 138.17778176 3.29302705 138.23052408 5.83544922 138.26733398 C-3.23059908 119.4994366 -12.25567862 104.67895396 -30.52148438 93.75756836 C-35.45192562 90.79242448 -39.51667557 87.77002464 -43.16455078 83.26733398 C-44.01339844 82.22125977 -44.01339844 82.22125977 -44.87939453 81.15405273 C-46.07230883 79.64267991 -47.24815608 78.11768301 -48.40673828 76.57983398 C-49.56644489 75.05417552 -50.75905513 73.55290816 -51.98486328 72.07983398 C-59.53657631 62.92624243 -63.04934853 54.87797425 -62.57470703 42.84155273 C-61.29518488 31.6914311 -54.65971888 21.64291399 -46.03955078 14.57983398 C-30.92088842 3.72473904 -18.44073016 -0.22806759 0 0 Z M183.83544922 286.26733398 C183.83544922 291.54733398 183.83544922 296.82733398 183.83544922 302.26733398 C184.16544922 302.26733398 184.49544922 302.26733398 184.83544922 302.26733398 C185.49544922 296.98733398 186.15544922 291.70733398 186.83544922 286.26733398 C185.84544922 286.26733398 184.85544922 286.26733398 183.83544922 286.26733398 Z M186.83544922 366.26733398 C186.59983319 380.45001655 187.31537653 394.59754317 187.92919922 408.76342773 C188.04157667 411.40998731 188.15370432 414.05655629 188.26550293 416.70314026 C188.52858662 422.91825295 188.79487209 429.13322398 189.06236219 435.34814841 C189.36718132 442.43410675 189.6683485 449.52021891 189.96923733 456.60634506 C190.58729812 471.16018016 191.20985282 485.71382087 191.83544922 500.26733398 C194.37828156 500.37605366 196.9164001 500.454958 199.46044922 500.51733398 C200.17330078 500.55084961 200.88615234 500.58436523 201.62060547 500.61889648 C206.85942667 500.71502164 209.62823921 499.63514166 213.83544922 496.26733398 C214.58568359 495.67694336 215.33591797 495.08655273 216.10888672 494.47827148 C221.72819995 489.56920602 226.35418503 484.2260722 230.83544922 478.26733398 C229.42876227 474.13001943 227.30285024 470.66782917 225.00219727 466.98803711 C213.49057735 448.54027883 204.25156709 429.04863289 197.83544922 408.26733398 C197.57038574 407.42251465 197.30532227 406.57769531 197.03222656 405.70727539 C192.99773079 392.71858226 190.14296386 379.66449251 187.83544922 366.26733398 C187.50544922 366.26733398 187.17544922 366.26733398 186.83544922 366.26733398 Z " fill="#00FCFC" transform="translate(745.16455078125,-0.267333984375)"/>
<path d="M0 0 C0.68674065 0.00067706 1.3734813 0.00135413 2.08103228 0.00205171 C4.37563433 0.00922661 6.66929141 0.03933318 8.96368408 0.07054138 C10.61519251 0.08279485 12.26670633 0.09433839 13.91822433 0.10522556 C33.69132012 0.27017726 53.45752384 0.89405891 73.22039127 1.51651835 C78.61735078 1.68538714 84.01449806 1.84805374 89.41162109 2.01159668 C98.44081416 2.28607095 107.46986844 2.56476843 116.49884033 2.84642029 C126.88796263 3.17047422 137.27724593 3.48887581 147.66664052 3.80407137 C158.8351028 4.14293384 170.00344949 4.48548856 181.17175961 4.82932591 C184.35162663 4.92700675 187.53151247 5.0240538 190.71140289 5.12096977 C195.71875216 5.27379399 200.72601726 5.42914613 205.73323059 5.58635902 C207.55473594 5.64319561 209.3762658 5.69925343 211.19782257 5.75441742 C216.04378031 5.90146442 220.8881813 6.06942059 225.73264408 6.25930476 C228.11943548 6.34034528 230.50525333 6.3842721 232.89302826 6.425951 C234.43424619 6.47204373 235.97543893 6.51898871 237.51660156 6.56689453 C238.21900066 6.57010584 238.92139975 6.57331715 239.64508367 6.57662576 C243.3463922 6.72175135 244.7994956 7.09509811 247.48216629 9.72981167 C249.27247728 12.71425954 249.81138369 13.93924517 249.04669189 17.33787537 C244.96012774 22.48761068 240.33760824 24.01320713 234.23419189 26.08787537 C219.6318158 31.36464022 207.0906091 38.53018256 195.04669189 48.33787537 C194.24747314 48.98369568 193.44825439 49.62951599 192.62481689 50.29490662 C186.64480692 55.35729437 181.80296199 61.13098685 177.04669189 67.33787537 C176.46274658 68.08295349 175.87880127 68.82803162 175.27716064 69.59568787 C167.13066149 80.54671952 160.94824478 93.21611327 156.17169189 105.96287537 C155.91001221 106.65244324 155.64833252 107.34201111 155.37872314 108.05247498 C153.49748714 113.33018612 152.20976022 118.70874615 150.94854736 124.15965271 C150.6730027 125.34104073 150.6730027 125.34104073 150.39189148 126.54629517 C149.94193736 128.47646023 149.49410111 130.40711881 149.04669189 132.33787537 C166.13630311 132.52489995 183.22559422 132.66589935 200.31599522 132.75237274 C208.25172228 132.79359437 216.18681287 132.84977512 224.12213135 132.94139099 C231.0399994 133.02122187 237.95740647 133.07276265 244.87572235 133.09058332 C248.53796877 133.10099827 252.19889666 133.12540545 255.86071968 133.18371582 C259.95267904 133.24834485 264.04235841 133.24978893 268.13482666 133.24607849 C269.34395721 133.2748407 270.55308777 133.30360291 271.79885864 133.33323669 C277.95782652 133.35228312 277.95782652 133.35228312 283.27024651 130.61447144 C285.03020615 128.60282453 286.51718793 126.52599741 288.04669189 124.33787537 C290.58359797 121.83908432 293.28669357 119.58642158 296.04669189 117.33787537 C296.99415283 116.56443787 297.94161377 115.79100037 298.91778564 114.99412537 C330.82346767 89.46061187 367.98510261 79.35924253 408.62872314 82.65037537 C439.84178115 86.31096437 468.52296716 101.94980061 491.04669189 123.33787537 C492.2888247 124.38891082 493.53785401 125.43190659 494.79669189 126.46287537 C507.50130776 137.25287479 517.91068671 152.93176702 526.04669189 167.33787537 C526.40182861 167.96065369 526.75696533 168.58343201 527.12286377 169.2250824 C540.63853733 193.11175158 549.09287255 219.20080444 553.04669189 246.33787537 C553.22426025 247.55144714 553.40182861 248.76501892 553.58477783 250.0153656 C554.91215937 259.81467702 555.48473185 269.4517445 555.48419189 279.33787537 C555.48592407 280.10435394 555.48765625 280.87083252 555.48944092 281.66053772 C555.47321648 298.23914004 553.2513986 314.09600453 550.04669189 330.33787537 C549.88153076 331.21943298 549.71636963 332.1009906 549.54620361 333.00926208 C544.39681106 360.15904938 532.02745509 386.91763121 516.04669189 409.33787537 C515.63064697 409.92214294 515.21460205 410.50641052 514.78594971 411.10838318 C489.61495175 445.98049533 454.23732844 470.35436478 411.64215088 477.93235779 C378.29306465 483.14285842 343.30722204 475.88052933 315.04669189 457.33787537 C315.10727783 458.12992371 315.16786377 458.92197205 315.23028564 459.73802185 C316.13153101 472.28006427 316.58563927 484.83563606 317.04669189 497.40037537 C317.11155792 499.14956772 317.11155792 499.14956772 317.17773438 500.93409729 C317.89391653 520.30426092 318.58235641 539.67453879 318.95880127 559.05467224 C319.01592094 561.97044789 319.08609774 564.88552251 319.16583252 567.80076599 C319.262687 571.3762739 319.33446304 574.95141753 319.38671875 578.52784729 C319.42067684 580.46739933 319.47867697 582.40648391 319.53741455 584.34544373 C319.54821045 585.49150085 319.55900635 586.63755798 319.57012939 587.81834412 C319.58994873 588.81760925 319.60976807 589.81687439 319.63018799 590.84642029 C319.04669189 593.33787537 319.04669189 593.33787537 316.87342834 594.96855164 C313.7201495 596.49605858 311.72092474 596.7209336 308.2354126 596.73851013 C306.50668159 596.75865425 306.50668159 596.75865425 304.74302673 596.77920532 C303.49874405 596.7792305 302.25446136 596.77925568 300.97247314 596.77928162 C298.98341946 596.79825744 296.99436583 596.81724736 295.00531864 596.83689213 C292.9007216 596.85527201 290.79618186 596.86684706 288.69152832 596.87663269 C281.44885582 596.91213812 274.20680143 597.00810595 266.96466064 597.09959412 C266.25456848 597.10815178 265.54447632 597.11670944 264.81286621 597.12552643 C250.96668078 597.29454318 237.21878613 597.89000377 223.40782166 598.89118958 C217.80311619 599.29613542 212.19561955 599.63401844 206.58575439 599.95896912 C182.37297888 601.3690839 158.1762323 602.98697422 133.98419189 604.71287537 C133.25000156 604.76521332 132.51581123 604.81755127 131.75937271 604.87147522 C114.43339488 606.10792263 97.11220855 607.39599767 79.79669189 608.77146912 C79.06003359 608.829842 78.32337528 608.88821487 77.564394 608.94835663 C70.4978984 609.50831843 63.4316864 610.07110476 56.36687279 610.65194225 C53.19663342 610.91151706 50.02590235 611.16498842 46.85528564 611.41990662 C45.18955505 611.56014503 45.18955505 611.56014503 43.49017334 611.70321655 C37.99855942 612.14038715 32.50255898 612.471366 26.99615479 612.64524841 C25.42928673 612.70243294 25.42928673 612.70243294 23.83076477 612.76077271 C20.30629474 612.22540992 19.17666831 611.1456098 17.04669189 608.33787537 C16.27037934 603.35896853 17.11871199 600.48829935 20.0425415 596.40867615 C20.47703613 595.82843689 20.91153076 595.24819763 21.35919189 594.65037537 C38.09761698 570.82580691 48.64005277 543.68747296 58.02764893 516.30125427 C58.86978443 513.85232261 59.72985297 511.4117372 60.60528564 508.97459412 C63.00182905 502.14332554 64.96513365 495.22890988 66.73419189 488.21287537 C66.93697754 487.44467468 67.13976318 486.676474 67.34869385 485.88499451 C71.66312936 467.9553174 71.33689369 449.13922219 71.27716064 430.82615662 C71.2763429 428.36524977 71.27631344 425.90434255 71.27700806 423.44343567 C71.27607303 417.54879977 71.26543955 411.65424431 71.2495265 405.75963092 C71.23681098 400.98132116 71.22852169 396.20302107 71.22293091 391.42469788 C71.1777623 353.9571157 70.98768547 316.49119059 70.60919189 279.02537537 C70.59450678 277.53936514 70.59450678 277.53936514 70.57952499 276.0233345 C70.31910926 249.78645799 69.82430424 223.56464522 69.04669189 197.33787537 C52.40661647 201.51435941 35.55598999 205.87855774 21.57794189 216.30662537 C20.04669189 217.33787537 20.04669189 217.33787537 18.04669189 217.33787537 C18.18768311 218.01141052 18.32867432 218.68494568 18.47393799 219.37889099 C21.16734454 232.32312494 23.76600781 245.16910206 25.04669189 258.33787537 C25.13209229 259.1414447 25.21749268 259.94501404 25.30548096 260.77293396 C27.12245694 278.81570083 26.69855857 296.90709867 23.50421143 314.75340271 C23.02678825 317.45030867 22.59522895 320.15215915 22.16778564 322.85740662 C16.15011525 359.72767957 -0.20397455 397.5990607 -25.87908936 425.11131287 C-27.76654978 427.13740033 -29.54951522 429.21684442 -31.32830811 431.33787537 C-56.36558761 459.78932935 -92.77432702 475.47897913 -129.95330811 479.33787537 C-170.87715834 481.08363485 -208.39402123 466.17792058 -238.45330811 438.58787537 C-240.29967345 436.85090406 -242.12660989 435.09569356 -243.95330811 433.33787537 C-244.63264404 432.72170349 -245.31197998 432.10553162 -246.01190186 431.47068787 C-280.85430581 398.87384425 -300.44735426 344.78775229 -302.82440186 297.90428162 C-302.8724196 296.38229711 -302.91459921 294.86012507 -302.95330811 293.33787537 C-302.98053955 292.29228455 -303.007771 291.24669373 -303.03582764 290.16941833 C-303.41815238 272.66663969 -302.79420782 255.62677935 -299.95330811 238.33787537 C-299.76043213 237.15789978 -299.76043213 237.15789978 -299.56365967 235.9540863 C-291.13608017 187.25425667 -263.77982917 138.82411904 -223.32830811 109.68162537 C-198.05480061 92.05340434 -170.20802335 81.85553877 -139.20330811 82.02537537 C-138.49476685 82.02753052 -137.78622559 82.02968567 -137.05621338 82.03190613 C-126.71546177 82.08239865 -116.98646847 82.53324721 -106.95330811 85.33787537 C-106.18696045 85.53655212 -105.42061279 85.73522888 -104.63104248 85.93992615 C-92.6155223 89.06555347 -81.79429629 93.31110231 -70.95330811 99.33787537 C-69.88596436 99.91537537 -68.81862061 100.49287537 -67.71893311 101.08787537 C-56.83588917 107.17786886 -42.62464958 115.62850971 -35.68188477 126.29037476 C-33.28467068 129.50276916 -30.98273698 131.86232947 -26.96309662 132.80423164 C-20.75931619 133.57175127 -14.50460581 133.40265979 -8.26580811 133.33787537 C-6.23698372 133.34539925 -4.20816959 133.35643791 -2.17938232 133.37083435 C3.14088018 133.39919846 8.4599354 133.38002361 13.78015137 133.35075378 C19.21673361 133.32931992 24.65310047 133.35311154 30.08966064 133.37303162 C40.74227639 133.40543149 51.39416485 133.38758206 62.04669189 133.33787537 C60.97132536 128.82935285 59.89131243 124.32197627 58.80725098 119.8155365 C58.44021337 118.28702359 58.07437788 116.75822145 57.70983887 115.22911072 C51.08188905 87.43947 40.95082421 60.94301767 23.04669189 38.33787537 C22.37380127 37.46389099 21.70091064 36.58990662 21.00762939 35.68943787 C14.09441357 27.30532506 4.84831514 20.35225418 -4.57830811 15.02537537 C-8.72733807 12.66035993 -10.92225665 10.69012849 -12.95330811 6.33787537 C-11.95330811 3.33787537 -11.95330811 3.33787537 -9.82538986 1.67149258 C-6.32390882 0.04562125 -3.8569246 -0.02378863 0 0 Z M186.04669189 244.33787537 C186.04669189 249.61787537 186.04669189 254.89787537 186.04669189 260.33787537 C186.37669189 260.33787537 186.70669189 260.33787537 187.04669189 260.33787537 C187.70669189 255.05787537 188.36669189 249.77787537 189.04669189 244.33787537 C188.05669189 244.33787537 187.06669189 244.33787537 186.04669189 244.33787537 Z M189.04669189 324.33787537 C188.81107586 338.52055794 189.52661921 352.66808455 190.14044189 366.83396912 C190.25281935 369.48052869 190.364947 372.12709768 190.47674561 374.77368164 C190.7398293 380.98879433 191.00611476 387.20376536 191.27360487 393.41868979 C191.578424 400.50464813 191.87959118 407.59076029 192.18048 414.67688644 C192.79854079 429.23072154 193.42109549 443.78436226 194.04669189 458.33787537 C196.58952424 458.44659504 199.12764277 458.52549938 201.67169189 458.58787537 C202.38454346 458.62139099 203.09739502 458.65490662 203.83184814 458.68943787 C209.07066934 458.78556303 211.83948189 457.70568304 216.04669189 454.33787537 C216.79692627 453.74748474 217.54716064 453.15709412 218.32012939 452.54881287 C223.93944263 447.6397474 228.5654277 442.29661358 233.04669189 436.33787537 C231.64000495 432.20056081 229.51409292 428.73837056 227.21343994 425.05857849 C215.70182003 406.61082021 206.46280976 387.11917427 200.04669189 366.33787537 C199.78162842 365.49305603 199.51656494 364.64823669 199.24346924 363.77781677 C195.20897347 350.78912364 192.35420653 337.73503389 190.04669189 324.33787537 C189.71669189 324.33787537 189.38669189 324.33787537 189.04669189 324.33787537 Z " fill="#000000" transform="translate(742.9533081054688,41.66212463378906)"/>
<path d="M0 0 C1.82265347 0.01224102 3.64531172 0.02378621 5.46797371 0.03468418 C25.68046167 0.18846239 45.88375971 0.80120252 66.08540869 1.44597697 C71.44027396 1.61552802 76.79536033 1.77781892 82.15042114 1.9410553 C91.11375771 2.21523338 100.07694597 2.49385785 109.04003906 2.77587891 C121.5917167 3.17080875 134.14363715 3.55754206 146.69561934 3.94265354 C156.57300532 4.24597525 166.45032985 4.5512919 176.32763672 4.85717773 C177.88114971 4.90528567 177.88114971 4.90528567 179.46604681 4.95436549 C190.84444641 5.30706507 202.22268393 5.66398042 213.60050738 6.03484422 C218.17198795 6.18338726 222.74357411 6.3252502 227.31552637 6.45847243 C230.42275677 6.55038049 233.52971026 6.65091211 236.63671875 6.75 C237.69010374 6.77815513 238.74348873 6.80631025 239.82879448 6.83531857 C252.22004097 7.25218511 261.73298274 10.22557235 270.66357422 19.07983398 C280.03924862 29.18925682 284.0296354 39.28368234 284.58544922 52.95483398 C284.62637695 53.93291016 284.66730469 54.91098633 284.70947266 55.91870117 C284.93579116 62.93924124 284.59809426 69.43840379 282.83544922 76.26733398 C282.55894531 77.56477539 282.55894531 77.56477539 282.27685547 78.88842773 C279.94436543 88.40672561 273.69085586 95.6151502 265.83544922 101.26733398 C260.38778771 104.40391172 254.6336689 106.4814744 248.71044922 108.51733398 C234.17664374 113.72748604 221.09664047 120.76542997 211.69287109 133.42163086 C211.15658081 134.14185425 210.62029053 134.86207764 210.06774902 135.60412598 C209.66109009 136.15298462 209.25443115 136.70184326 208.83544922 137.26733398 C216.34217213 137.49662231 223.84798418 137.65358977 231.35742188 137.76171875 C233.90854636 137.80681847 236.45944029 137.86811754 239.00976562 137.94628906 C242.68921894 138.05619854 246.36558436 138.10666592 250.04638672 138.14624023 C251.17595795 138.1926918 252.30552917 138.23914337 253.46932983 138.28700256 C260.03893325 138.29113624 263.48196962 137.32579218 268.43554688 132.87988281 C269.91827305 131.35787919 271.38704099 129.82203187 272.83544922 128.26733398 C304.31180755 100.54742865 346.08461399 86.05177068 387.64794922 86.01733398 C388.74734833 86.01632187 388.74734833 86.01632187 389.86895752 86.01528931 C401.74292312 86.03261057 413.21840576 86.67294458 424.83544922 89.26733398 C425.63047852 89.44425781 426.42550781 89.62118164 427.24462891 89.8034668 C462.08543751 97.81809857 493.20819636 115.42284163 518.83544922 140.26733398 C519.39474121 140.80084473 519.9540332 141.33435547 520.53027344 141.8840332 C554.06315671 173.93684438 575.53879929 216.54135402 586.14794922 261.39233398 C586.37828857 262.35478027 586.60862793 263.31722656 586.84594727 264.30883789 C591.21368216 283.78332557 592.38119502 303.04682931 592.27294922 322.95483398 C592.26990784 324.14321869 592.26686646 325.33160339 592.26373291 326.55599976 C592.19850279 343.78907285 591.62525394 360.3951119 587.83544922 377.26733398 C587.6158252 378.314375 587.39620117 379.36141602 587.16992188 380.44018555 C579.02392697 419.07745227 562.6065985 457.03488078 536.83544922 487.26733398 C535.88856933 488.39862239 534.9419767 489.53015127 533.99560547 490.66186523 C525.06788518 501.27465181 515.73974367 510.65177513 504.83544922 519.26733398 C503.87123047 520.06010742 502.90701172 520.85288086 501.91357422 521.66967773 C462.17620475 553.59068645 412.93023018 564.61700817 363.01098633 559.56445312 C360.89557514 559.27554555 358.89425052 558.8267495 356.83544922 558.26733398 C356.90111084 559.05132568 356.96677246 559.83531738 357.03442383 560.64306641 C358.12667634 574.168342 358.54507812 587.70487923 358.83544922 601.26733398 C358.85325439 602.09031982 358.87105957 602.91330566 358.8894043 603.76123047 C358.99918449 609.07128343 359.07647775 614.3807428 359.12155151 619.69174194 C359.13893503 621.42898794 359.16311406 623.16618132 359.1946106 624.90322876 C359.47513036 641.17909186 357.0375059 655.68569312 345.52294922 668.07983398 C342.50193301 670.88552938 339.41424043 672.99552138 335.7097168 674.80297852 C332.73463714 676.27020931 332.73463714 676.27020931 329.63134766 678.23901367 C316.62838195 685.80336585 303.70865825 685.2869929 289.01995087 685.09948349 C285.47999056 685.06570907 281.94040581 685.08407278 278.40039062 685.10253906 C277.6783589 685.10628005 276.95632717 685.11002104 276.2124157 685.11387539 C274.74036506 685.1218125 273.26831594 685.13003443 271.79626846 685.13853645 C269.55834251 685.15020636 267.32043544 685.15743139 265.08248901 685.16392517 C250.10869333 685.21817385 235.1682082 685.75724235 220.21044922 686.45483398 C219.54515953 686.48539635 218.87986984 686.51595871 218.19441986 686.5474472 C169.84330916 688.77121994 121.510105 691.965995 73.24169922 695.54467773 C71.95011902 695.6402446 70.65853882 695.73581146 69.32781982 695.83427429 C63.61473367 696.25965006 57.90270565 696.69499732 52.19189453 697.14990234 C19.18780387 699.73424338 19.18780387 699.73424338 8.89794922 696.20483398 C8.2025 695.9829541 7.50705078 695.76107422 6.79052734 695.5324707 C0.48984089 693.39671901 -4.84538088 690.25456312 -10.16455078 686.26733398 C-10.95216797 685.71045898 -11.73978516 685.15358398 -12.55126953 684.57983398 C-22.06986823 677.5984509 -30.90547131 668.27146214 -33.16455078 656.26733398 C-34.19964829 645.98187139 -32.59539227 639.86904896 -27.16455078 631.26733398 C-25.496467 628.17980372 -23.90949359 625.0489448 -22.32080078 621.91992188 C-20.39045625 618.23641664 -18.21905624 614.87417468 -15.79345703 611.49389648 C1.89144443 586.59278273 13.84649787 553.86152079 20.83544922 524.26733398 C21.11138916 523.17050293 21.3873291 522.07367187 21.67163086 520.94360352 C24.52712717 508.12194733 24.17090065 495.34289101 24.02294922 482.26733398 C24.0078672 479.93140516 23.99418506 477.59546687 23.98193359 475.25952148 C23.9492255 469.59524861 23.89930826 463.93133694 23.83544922 458.26733398 C23.17013184 459.34547363 22.50481445 460.42361328 21.81933594 461.53442383 C20.92641361 462.97412908 20.03333907 464.41373994 19.14013672 465.85327148 C18.70403076 466.56088623 18.2679248 467.26850098 17.81860352 467.99755859 C5.50835735 487.80099807 -10.77342687 506.00288249 -29.16455078 520.26733398 C-29.69612793 520.68595703 -30.22770508 521.10458008 -30.77539062 521.53588867 C-61.73093662 545.77915808 -98.85544022 559.73144688 -138.16455078 561.26733398 C-139.08623047 561.30858398 -140.00791016 561.34983398 -140.95751953 561.39233398 C-179.32453987 562.25816237 -218.24069806 549.9331124 -249.16455078 527.26733398 C-250.21642578 526.49905273 -251.26830078 525.73077148 -252.35205078 524.93920898 C-260.07617175 519.19352302 -267.22225005 512.92904324 -274.16455078 506.26733398 C-275.11458984 505.35854492 -276.06462891 504.44975586 -277.04345703 503.51342773 C-313.91505914 467.46233416 -333.95750924 419.00600591 -344.16455078 369.26733398 C-346.08523893 373.22372715 -348.00022345 377.1828597 -349.91455078 381.14233398 C-350.43404297 382.21225586 -350.95353516 383.28217773 -351.48876953 384.38452148 C-352.34730976 386.16220479 -353.20322611 387.94152921 -354.01986694 389.73884583 C-355.86695977 393.76552979 -357.90804358 397.50066918 -360.26464844 401.25439453 C-372.70675658 422.41275328 -370.63406855 445.18002687 -370.10510254 468.95709229 C-370.01709138 473.48540563 -369.98263361 478.01342298 -369.95055962 482.54242802 C-369.91131252 487.98349472 -369.85046731 493.42422286 -369.78173828 498.86499023 C-369.76888668 499.8867592 -369.75603508 500.90852818 -369.74279404 501.96125984 C-369.70056067 504.86188754 -369.64402721 507.76184384 -369.58203125 510.66210938 C-369.57036926 511.5052771 -369.55870728 512.34844482 -369.54669189 513.21716309 C-369.21163175 526.5484419 -364.86799727 536.96739716 -355.16455078 546.26733398 C-345.21655015 554.72216493 -332.40552007 560.42380764 -320.60205078 565.82983398 C-307.16691665 572.51223054 -300.10157619 584.67576204 -295.16455078 598.26733398 C-291.9005665 608.24520997 -293.58809364 621.07617632 -298.16455078 630.26733398 C-300.60145851 634.13891391 -303.29541317 637.7084441 -306.16455078 641.26733398 C-306.58607422 641.85256836 -307.00759766 642.43780273 -307.44189453 643.04077148 C-315.93145577 654.460893 -330.06186421 658.04559075 -343.25341797 660.92675781 C-344.31076645 661.16394185 -345.36811493 661.40112589 -346.45750427 661.64549732 C-349.95729942 662.42874519 -353.45931206 663.20155635 -356.96142578 663.97436523 C-359.46940259 664.53348345 -361.97723201 665.09326315 -364.48492432 665.65365601 C-369.83860989 666.84856466 -375.19324341 668.03906821 -380.54882812 669.22543335 C-388.2472018 670.9307964 -395.94375834 672.64424193 -403.63984394 674.35989773 C-415.11259781 676.91736564 -426.58635034 679.47031197 -438.06090832 682.01967227 C-454.77030624 685.73219123 -471.4760373 689.4609034 -488.18017578 693.19702148 C-490.60170257 693.73853079 -493.02323167 694.28002975 -495.44476318 694.82151794 C-498.959441 695.60746688 -502.4741162 696.39342752 -505.98878098 697.17943478 C-516.87207215 699.61327778 -527.75560499 702.04603474 -538.63988495 704.47545242 C-540.54856615 704.90156544 -542.45720281 705.32787799 -544.36579132 705.75440598 C-546.95224112 706.33239653 -549.53884331 706.90970004 -552.12548828 707.48681641 C-552.87454311 707.65436337 -553.62359795 707.82191034 -554.39535141 707.99453449 C-570.47107185 711.57759383 -582.85334909 711.0758193 -597.13330078 702.35327148 C-607.9455364 694.91289285 -616.23355406 686.27614133 -619.16455078 673.26733398 C-621.64982876 658.73801655 -618.23475807 643.13789054 -610.47705078 630.57983398 C-604.58307135 622.35465374 -597.38217984 617.68180974 -588.49658203 613.09936523 C-562.97235988 599.06553149 -544.23759696 571.31209014 -536.09033203 543.75952148 C-535.78482422 542.60709961 -535.47931641 541.45467773 -535.16455078 540.26733398 C-534.69082031 538.63151367 -534.69082031 538.63151367 -534.20751953 536.96264648 C-520.51478664 481.81657153 -556.45228586 422.26337899 -582.75439453 376.26733398 C-586.60900142 369.51526651 -590.35607742 362.70496259 -594.10205078 355.89233398 C-600.8265187 343.67189899 -607.61764559 331.49020222 -614.44677734 319.32788086 C-616.77112794 315.18659901 -619.09129571 311.04298138 -621.41113281 306.89916992 C-622.57581579 304.81889239 -623.74085227 302.73881274 -624.90625 300.65893555 C-627.87824844 295.3544721 -630.84560171 290.04749071 -633.80517578 284.73608398 C-636.72164946 279.50363329 -639.65336423 274.27998889 -642.59521484 269.06176758 C-644.02363278 266.51825922 -645.43512016 263.96609183 -646.84423828 261.41186523 C-664.01238371 230.72262336 -693.88566013 211.74328677 -723.08642578 193.58374023 C-733.12477418 187.20271891 -738.35367976 179.41599979 -742.16455078 168.26733398 C-742.48294922 167.49131836 -742.80134766 166.71530273 -743.12939453 165.91577148 C-747.29577323 154.74142862 -746.65391335 141.02813998 -741.84814453 130.23217773 C-738.89047111 125.02365307 -735.21446299 120.65532582 -731.16455078 116.26733398 C-730.59865234 115.59831055 -730.03275391 114.92928711 -729.44970703 114.23999023 C-722.54239921 106.52204482 -711.96534664 101.92929807 -701.7057457 101.0586834 C-698.88946331 100.95029623 -696.07799838 100.90077852 -693.25976562 100.87255859 C-692.1895218 100.8543487 -691.11927797 100.8361388 -690.01660252 100.81737709 C-686.46964088 100.75926261 -682.92264148 100.71444441 -679.37548828 100.66967773 C-676.86331449 100.63117548 -674.35115324 100.59184691 -671.83900452 100.55174255 C-665.81709336 100.45768002 -659.79511804 100.37210241 -653.77302879 100.29057568 C-646.84308958 100.19634413 -639.91331523 100.09193915 -632.98353374 99.98683596 C-621.35109541 99.81063382 -609.71856573 99.64191205 -598.0859375 99.47875977 C-586.45451181 99.31557095 -574.82329382 99.14213591 -563.19216919 98.95882607 C-557.02027692 98.86188607 -550.84833838 98.76793034 -544.67639923 98.6740303 C-542.64768461 98.64303128 -540.61897764 98.61156399 -538.590271 98.58004761 C-531.34646742 98.46922391 -524.10291227 98.37944493 -516.85858154 98.31164551 C-513.52849355 98.27169964 -510.19963212 98.21164981 -506.8700285 98.14466667 C-503.99075412 98.09103291 -501.11141284 98.05532014 -498.23182869 98.02296829 C-496.21602813 97.99499046 -494.20054913 97.94620553 -492.18516541 97.89657593 C-475.56120073 97.751454 -464.46987024 103.23443639 -452.47705078 114.32983398 C-443.16580271 123.8656086 -438.88589812 134.81496751 -438.92016602 148.06323242 C-439.13282484 160.38910442 -444.54251935 169.20936706 -451.18798828 179.35717773 C-462.02895931 196.15860601 -467.50402144 214.28151702 -463.62988281 234.27563477 C-462.34298926 239.78375522 -460.30412359 245.0408966 -458.16455078 250.26733398 C-443.62541964 223.36659134 -429.99196311 195.87485103 -420.60205078 166.70483398 C-420.36228516 165.96152832 -420.12251953 165.21822266 -419.87548828 164.45239258 C-417.50381083 156.72136315 -416.34782437 150.49596361 -419.74267578 142.90405273 C-428.67842931 126.33363066 -444.03275789 112.00911106 -458.63330078 100.34545898 C-469.86130018 91.12741009 -481.5144488 78.24943166 -483.74267578 63.41967773 C-484.11772466 50.2527831 -480.06280747 40.97934712 -471.45092773 31.3515625 C-466.51452818 26.1638412 -461.42129132 22.70672088 -455.10205078 19.39233398 C-454.24289062 18.92053711 -453.38373047 18.44874023 -452.49853516 17.96264648 C-442.67289464 12.67826839 -434.85354031 11.95559735 -423.765625 12.05322266 C-422.26907816 12.06005537 -420.77253109 12.06683721 -419.27598381 12.07357311 C-399.1468637 12.20349172 -379.02603701 12.91560092 -358.90915537 13.58204293 C-355.50612365 13.69447778 -352.10304519 13.80537786 -348.69994736 13.91579247 C-336.78788423 14.30241372 -324.87603687 14.6950586 -312.96435547 15.09326172 C-301.91363892 15.4625092 -290.86252776 15.81768793 -279.81115448 16.166673 C-270.25335983 16.46914666 -260.69592631 16.78164527 -251.13870895 17.10183781 C-245.45932687 17.29192952 -239.77988548 17.4780065 -234.10004044 17.65377235 C-228.7788542 17.81875578 -223.4582283 17.99625769 -218.1377697 18.18320084 C-216.1949614 18.24936878 -214.25199795 18.31115945 -212.30889702 18.36808968 C-197.81838682 18.79645126 -185.40427943 19.73173374 -173.16455078 28.26733398 C-172.38080078 28.79327148 -171.59705078 29.31920898 -170.78955078 29.86108398 C-161.77648648 36.31638679 -155.87387812 45.06734409 -153.60595703 55.94702148 C-153.06272604 60.03327234 -152.98048763 64.02498387 -152.97705078 68.14233398 C-152.96480469 68.90674805 -152.95255859 69.67116211 -152.93994141 70.45874023 C-152.92654685 75.71833598 -153.7077732 80.21179757 -155.16455078 85.26733398 C-154.33020508 85.2819165 -153.49585938 85.29649902 -152.63623047 85.31152344 C-102.10326301 86.29507432 -58.4833588 99.09700091 -20.16455078 133.26733398 C-19.61541016 134.01756836 -19.06626953 134.76780273 -18.50048828 135.54077148 C-14.49086983 138.50440252 -9.76379663 137.94964147 -4.91455078 138.01733398 C-3.88330078 138.04698242 -2.85205078 138.07663086 -1.78955078 138.10717773 C0.75219416 138.17778176 3.29302705 138.23052408 5.83544922 138.26733398 C-3.23059908 119.4994366 -12.25567862 104.67895396 -30.52148438 93.75756836 C-35.45192562 90.79242448 -39.51667557 87.77002464 -43.16455078 83.26733398 C-44.01339844 82.22125977 -44.01339844 82.22125977 -44.87939453 81.15405273 C-46.07230883 79.64267991 -47.24815608 78.11768301 -48.40673828 76.57983398 C-49.56644489 75.05417552 -50.75905513 73.55290816 -51.98486328 72.07983398 C-59.53657631 62.92624243 -63.04934853 54.87797425 -62.57470703 42.84155273 C-61.29518488 31.6914311 -54.65971888 21.64291399 -46.03955078 14.57983398 C-30.92088842 3.72473904 -18.44073016 -0.22806759 0 0 Z M-31.16455078 25.26733398 C-32.42912109 26.17999023 -32.42912109 26.17999023 -33.71923828 27.11108398 C-39.79388944 32.00640726 -44.51956749 37.83307382 -45.66455078 45.70483398 C-45.33596687 57.77481635 -33.1515883 68.76876053 -25.03955078 76.60717773 C-21.70565753 79.55906238 -18.00063739 81.54877964 -14.07080078 83.58764648 C9.72754893 97.34206903 20.23136417 126.43342926 28.42749023 151.0402832 C28.69263931 151.83618866 28.95778839 152.63209412 29.23097229 153.45211792 C29.43044968 154.05113922 29.62992706 154.65016052 29.83544922 155.26733398 C22.45162651 155.35283726 15.07002692 155.36765051 7.68579102 155.33447266 C5.17664453 155.3313999 2.66742431 155.34421434 0.15844727 155.37353516 C-3.45969989 155.41301107 -7.07372959 155.39440901 -10.69189453 155.36499023 C-11.80475327 155.38956802 -12.917612 155.41414581 -14.06419373 155.43946838 C-20.41099367 155.32370927 -23.67243214 154.44119743 -28.23071289 149.88208008 C-29.55154255 148.35202405 -30.86377724 146.81447672 -32.16455078 145.26733398 C-34.29240024 143.34269243 -36.51435705 141.57652703 -38.78955078 139.82983398 C-39.37945801 139.37374756 -39.96936523 138.91766113 -40.57714844 138.44775391 C-56.85166037 126.022089 -73.81019415 116.95170812 -93.16455078 110.26733398 C-93.86974854 110.01765869 -94.57494629 109.7679834 -95.30151367 109.51074219 C-125.14405111 99.18125912 -160.8811077 100.33354455 -191.16455078 108.26733398 C-189.79063842 106.57894835 -188.41535918 104.89167497 -187.03955078 103.20483398 C-186.21841797 102.19549805 -185.39728516 101.18616211 -184.55126953 100.14624023 C-182.70173118 97.91529136 -180.81194913 95.77353451 -178.85205078 93.64233398 C-175.65458932 89.94886742 -173.85747963 85.81515649 -172.16455078 81.26733398 C-171.62507812 79.85581055 -171.62507812 79.85581055 -171.07470703 78.41577148 C-168.65192885 70.03483066 -169.17086178 60.0923669 -173.16455078 52.26733398 C-178.44495112 44.26672741 -187.04794716 38.93667779 -196.16455078 36.26733398 C-199.05354253 35.83111811 -201.90670439 35.73709261 -204.82543945 35.68310547 C-206.07199468 35.64331243 -206.07199468 35.64331243 -207.34373283 35.60271549 C-210.08978771 35.51827511 -212.83593918 35.4533316 -215.58251953 35.38842773 C-217.53449523 35.33216107 -219.48643508 35.27463859 -221.43833923 35.21594238 C-225.58642068 35.09375415 -229.73461172 34.9800602 -233.88311768 34.8732605 C-240.39058518 34.70570391 -246.89743298 34.51946688 -253.40429688 34.33007812 C-262.04052007 34.08007453 -270.67690833 33.83713186 -279.31347656 33.59936523 C-293.09772513 33.218556 -306.87986335 32.78457287 -320.66171265 32.32540894 C-324.27433609 32.20533966 -327.88703529 32.08780979 -331.49975586 31.97070312 C-344.3739946 31.54988344 -357.24516823 31.07583835 -370.11584473 30.55754089 C-380.87712665 30.12503972 -391.63919025 29.72310708 -402.40307617 29.36096191 C-404.19463768 29.30021893 -405.98614655 29.23789532 -407.77758789 29.17370605 C-412.94825444 28.98923821 -418.11639802 28.85931524 -423.28955078 28.76733398 C-424.47339355 28.72463379 -425.65723633 28.68193359 -426.87695312 28.63793945 C-435.11421737 28.57081106 -440.28983693 30.89220675 -447.16455078 35.26733398 C-448.90984915 36.21355798 -450.65925872 37.1522802 -452.41455078 38.07983398 C-458.64611572 41.84060327 -463.32735049 47.55042726 -466.16455078 54.26733398 C-467.27850538 60.3999472 -465.87176977 64.91627207 -462.65673828 70.13842773 C-460.79194056 72.79893758 -458.79775105 75.2578352 -456.61376953 77.66186523 C-455.32487399 79.08972525 -454.14180094 80.61151949 -452.97705078 82.14233398 C-449.88090163 85.87737105 -446.02675922 88.70048125 -442.25830078 91.72436523 C-425.16811024 105.60741324 -405.33569789 124.00418487 -400.16455078 146.26733398 C-399.603559 152.59799119 -400.56329265 158.3461241 -402.16455078 164.45483398 C-402.38747803 165.3157666 -402.61040527 166.17669922 -402.84008789 167.0637207 C-407.79558628 185.52407582 -415.3909991 202.76848133 -423.60009766 219.98266602 C-425.14009759 223.21599296 -426.66164625 226.45747141 -428.18017578 229.70092773 C-433.90319822 241.85370324 -440.00754857 253.71725263 -446.52392578 265.46264648 C-449.19280264 270.28134706 -451.68200001 275.16253951 -454.07861328 280.12280273 C-455.16455078 282.26733398 -455.16455078 282.26733398 -457.16455078 285.26733398 C-473.03767542 263.1952376 -485.87923998 237.58172174 -481.78515625 209.68188477 C-478.80494495 192.74844222 -471.90379913 179.01772986 -462.57788086 164.75634766 C-457.35966653 156.72808346 -455.02019949 150.00732395 -456.16455078 140.26733398 C-458.81368462 131.10574613 -467.08003728 122.95220591 -475.16455078 118.26733398 C-482.02485291 115.01771719 -487.89535149 114.87980981 -495.41455078 115.01733398 C-497.36760132 115.03485718 -497.36760132 115.03485718 -499.36010742 115.05273438 C-503.96210853 115.0980807 -508.56317172 115.18038718 -513.16455078 115.26733398 C-513.99372009 115.28278259 -514.8228894 115.2982312 -515.67718506 115.31414795 C-524.47615656 115.47955234 -533.27489792 115.65597384 -542.07348633 115.84057617 C-561.43048881 116.23776937 -580.78796237 116.46664368 -600.1477766 116.67433929 C-606.80127622 116.74579944 -613.45472475 116.82097953 -620.1081543 116.89868164 C-621.03746293 116.90951279 -621.96677156 116.92034393 -622.92424107 116.9315033 C-626.62322539 116.97466055 -630.32220871 117.01790036 -634.02118874 117.06142426 C-643.66614116 117.17473428 -653.31100068 117.28154181 -662.95629787 117.36073875 C-668.41142138 117.40630413 -673.86618525 117.46992839 -679.3210144 117.54223633 C-681.43611783 117.56694412 -683.55131309 117.58488959 -685.66653442 117.59545898 C-688.50755491 117.6102742 -691.347301 117.64862933 -694.18798828 117.69311523 C-694.98066605 117.69116653 -695.77334381 117.68921783 -696.59004211 117.68721008 C-704.02979337 117.85272162 -711.04023272 120.55348829 -716.62158203 125.58764648 C-723.84190343 133.44774319 -728.82980884 141.09977492 -728.60595703 151.99389648 C-728.05969726 156.04492029 -726.97501338 159.67677345 -725.60205078 163.51733398 C-725.37517578 164.17846191 -725.14830078 164.83958984 -724.91455078 165.52075195 C-721.53748458 174.25431759 -714.65562527 178.95697321 -706.78955078 183.45483398 C-687.9278132 194.62696603 -670.39065822 207.79533675 -654.54980469 222.94946289 C-653.35625191 224.08495776 -652.14303218 225.19971483 -650.92626953 226.31030273 C-640.69291063 235.92842963 -634.09910351 247.87885289 -627.77783203 260.23999023 C-625.15931471 265.33733098 -622.34329357 270.30603693 -619.47705078 275.26733398 C-614.8160846 283.35033289 -610.24671229 291.47946041 -605.72705078 299.64233398 C-601.0993383 307.99825174 -596.44263979 316.33569326 -591.72705078 324.64233398 C-586.15962849 334.45769691 -580.69404271 344.32743958 -575.25561523 354.21459961 C-571.29939891 361.40586582 -567.31790462 368.58188261 -563.31152344 375.74536133 C-534.78342277 426.83158947 -502.3576621 486.09411459 -518.98095703 546.30639648 C-529.06208483 580.82894214 -550.45509224 611.51813153 -581.97705078 629.32983398 C-591.01722442 634.49977991 -597.10361087 639.39356966 -600.66455078 649.51733398 C-602.84648164 657.80867125 -603.95855856 667.37818121 -600.32861328 675.43530273 C-595.42145984 683.15830598 -587.40730886 688.81327701 -579.22705078 692.64233398 C-570.31394854 694.46133444 -562.20561771 692.61461803 -553.50924683 690.42010498 C-549.79264196 689.48368451 -546.06622178 688.5878416 -542.34033203 687.68920898 C-541.53841934 687.49507416 -540.73650665 687.30093933 -539.91029358 687.10092163 C-529.51398804 684.60207379 -519.05567419 682.38625832 -508.60205078 680.14233398 C-495.9183899 677.41332209 -483.26123752 674.64179492 -470.66625977 671.5246582 C-459.62036578 668.82704334 -448.48638995 666.53111335 -437.36413574 664.17379761 C-426.16125411 661.79720911 -414.99972618 659.33229231 -403.88256836 656.578125 C-391.84669155 653.63588748 -379.70879859 651.139456 -367.58251953 648.60131836 C-358.75571814 646.74530059 -349.95756717 644.79805756 -341.19580078 642.65405273 C-340.36525681 642.45476669 -339.53471283 642.25548065 -338.67900085 642.05015564 C-327.23830262 639.19632367 -320.83522958 632.90736256 -314.16455078 623.26733398 C-312.61245184 620.61644754 -311.72443229 618.28383844 -311.16455078 615.26733398 C-311.01759766 614.48358398 -310.87064453 613.69983398 -310.71923828 612.89233398 C-310.13287214 606.53688166 -311.91320431 601.64875307 -314.60205078 596.01733398 C-314.90731689 595.35604492 -315.21258301 594.69475586 -315.52709961 594.01342773 C-320.50853147 584.38579472 -329.84459188 580.15808989 -339.35205078 575.95483398 C-358.3383626 567.19180443 -375.16610929 555.51609589 -383.31492615 535.43205261 C-387.03752061 523.92481562 -386.91426764 512.43465773 -387.01220703 500.44311523 C-387.02476469 499.30917013 -387.03732235 498.17522503 -387.05026054 497.00691795 C-387.11576721 490.9975925 -387.15793346 484.98863881 -387.18041992 478.97900391 C-387.20237182 474.06809591 -387.26473917 469.1604135 -387.36499023 464.25048828 C-388.38435606 413.31106073 -388.38435606 413.31106073 -374.87445068 393.01527405 C-371.6619117 387.85247794 -369.32091597 382.25076758 -366.85205078 376.70483398 C-366.25616875 375.4100261 -365.65820534 374.11616885 -365.05615234 372.82421875 C-364.58145508 371.79611084 -364.10675781 370.76800293 -363.61767578 369.70874023 C-359.82088575 361.50028366 -355.96038342 353.32199002 -352.10205078 345.14233398 C-345.37876779 330.88589649 -338.73864358 316.59325164 -332.16455078 302.26733398 C-331.41695866 307.7740921 -330.94316859 313.2135134 -330.69970703 318.76342773 C-330.62108397 320.39169034 -330.54230264 322.0199453 -330.46337891 323.64819336 C-330.34498523 326.16168859 -330.22838583 328.67523902 -330.11499023 331.18896484 C-329.59322994 342.62581469 -328.69762655 353.91984243 -327.16455078 365.26733398 C-327.04619873 366.14832764 -326.92784668 367.02932129 -326.8059082 367.93701172 C-321.38436816 404.73097959 -304.57426425 443.51551522 -281.16455078 472.26733398 C-280.43880859 473.18256836 -279.71306641 474.09780273 -278.96533203 475.04077148 C-271.3914841 484.47834115 -263.55067979 493.59343415 -254.16455078 501.26733398 C-253.09814453 502.16967773 -252.03173828 503.07202148 -250.96533203 503.97436523 C-232.67250756 519.24457168 -210.49299917 532.6344342 -187.16455078 538.26733398 C-186.10276611 538.52571045 -186.10276611 538.52571045 -185.01953125 538.78930664 C-143.80806993 548.70530122 -102.46316876 543.58548494 -65.16455078 523.26733398 C-64.14361328 522.72592773 -63.12267578 522.18452148 -62.07080078 521.62670898 C-48.41008673 514.06190497 -36.36250864 504.07320648 -25.16455078 493.26733398 C-24.26478516 492.43073242 -23.36501953 491.59413086 -22.43798828 490.73217773 C6.3477418 463.23226556 21.37257426 426.27563333 34.58935547 389.59155273 C35.19707798 387.9064298 35.80486556 386.22133033 36.41271973 384.53625488 C37.88771287 380.4468846 39.36182648 376.35719829 40.83544922 372.26733398 C40.90584372 389.94940526 40.95858535 407.63143218 40.99088573 425.31361198 C41.00628869 433.52561023 41.02725083 441.7375209 41.06176758 449.94946289 C41.09187299 457.11537368 41.11107183 464.28122098 41.1177147 471.44719326 C41.12159157 475.23392745 41.13056157 479.02048017 41.15263939 482.80715561 C41.25885109 501.76084671 40.96147651 519.93452717 35.08544922 538.14233398 C34.82723389 538.96781738 34.56901855 539.79330078 34.30297852 540.64379883 C33.49719674 543.1907353 32.66966316 545.72958298 31.83544922 548.26733398 C31.57779785 549.06333008 31.32014648 549.85932617 31.0546875 550.67944336 C22.52511456 576.8303751 11.71630896 602.69432155 -4.16455078 625.26733398 C-7.43028178 629.96526499 -7.43028178 629.96526499 -9.60205078 635.20483398 C-10.63135905 638.21270148 -11.87075889 640.34765369 -13.85205078 642.82983398 C-15.73008147 645.35861087 -16.18877734 646.39815742 -16.78955078 649.64233398 C-15.42435302 657.560481 -10.43395748 664.69454597 -4.17626953 669.61889648 C-3.07362474 670.38458561 -1.9654222 671.14232768 -0.85205078 671.89233398 C-0.30871094 672.27389648 0.23462891 672.65545898 0.79443359 673.04858398 C6.24361804 676.7800208 11.557071 679.50336726 18.21044922 679.89233398 C22.74835244 680.18023721 22.74835244 680.18023721 23.83544922 681.26733398 C25.33489736 681.30648428 26.83632556 681.27296484 28.33496094 681.20996094 C29.28976349 681.17106247 30.24456604 681.132164 31.228302 681.09208679 C32.79341019 681.01834587 32.79341019 681.01834587 34.39013672 680.94311523 C35.47165009 680.89472 36.55316345 680.84632477 37.66744995 680.79646301 C48.04418544 680.30535974 58.39318067 679.5406866 68.74749756 678.71115112 C110.00711624 675.4196147 151.32020497 672.844097 192.64794922 670.57983398 C193.75160828 670.51907684 194.85526733 670.4583197 195.99237061 670.39572144 C202.26530593 670.05245907 208.53877721 669.7242113 214.8135376 669.41604614 C216.80481763 669.31805269 218.79599301 669.21790548 220.78704834 669.115448 C233.04356605 668.49380694 245.27504892 668.21277651 257.54607582 668.23024559 C259.77440744 668.232179 262.00267608 668.22923274 264.23100281 668.22444153 C264.97169353 668.22287457 265.71238424 668.22130762 266.47552013 668.21969318 C267.98183853 668.21628991 269.48815635 668.21262091 270.99447346 668.20868969 C274.81211142 668.20098401 278.62878964 668.20801232 282.44628906 668.24316406 C302.52684681 668.41356996 319.05490632 668.22992153 334.83544922 654.26733398 C336.47247455 652.16491049 336.47247455 652.16491049 337.58544922 649.95483398 C338.16552734 648.90875977 338.16552734 648.90875977 338.75732422 647.84155273 C342.24690376 639.5095494 342.14928368 631.49415789 342.08544922 622.57983398 C342.08229202 621.48841095 342.08229202 621.48841095 342.07907104 620.37493896 C342.02841111 605.03872024 341.47739866 589.71618358 340.89794922 574.39233398 C340.85456421 573.24149323 340.8111792 572.09065247 340.76647949 570.90493774 C340.11239851 553.56749499 340.11239851 553.56749499 338.83544922 536.26733398 C339.51534912 536.44385498 340.19524902 536.62037598 340.89575195 536.80224609 C344.01987481 537.60949035 347.14635572 538.40721498 350.27294922 539.20483398 C351.34222656 539.48262695 352.41150391 539.76041992 353.51318359 540.04663086 C364.38769446 542.80682781 374.61279906 543.45389707 385.78955078 543.45263672 C387.93526509 543.45480849 390.08045136 543.47297952 392.22607422 543.49194336 C427.46713236 543.63696725 463.38960296 530.41104687 490.83544922 508.26733398 C491.39989746 507.81422852 491.9643457 507.36112305 492.54589844 506.89428711 C506.56288425 495.51840883 519.26744201 482.9269119 529.83544922 468.26733398 C530.55015381 467.27854248 530.55015381 467.27854248 531.27929688 466.26977539 C544.27207229 448.06276589 554.16547275 428.2436982 561.83544922 407.26733398 C562.0784375 406.61925781 562.32142578 405.97118164 562.57177734 405.3034668 C569.65506582 386.28352553 572.77349279 366.37319285 574.83544922 346.26733398 C574.97901855 344.93605469 574.97901855 344.93605469 575.12548828 343.57788086 C580.68086803 288.58161253 566.02142477 229.35052669 533.83544922 184.26733398 C533.10068359 183.2219043 532.36591797 182.17647461 531.60888672 181.09936523 C520.4829159 165.78598357 507.75516937 151.91982428 492.83544922 140.26733398 C492.2956543 139.84049316 491.75585938 139.41365234 491.19970703 138.97387695 C469.9555608 122.28727731 444.57587607 109.8594553 417.83544922 105.26733398 C417.18543945 105.15309082 416.53542969 105.03884766 415.86572266 104.92114258 C374.81349223 98.07233992 331.80927232 107.1684624 297.83544922 131.26733398 C288.17497089 138.17816126 279.2351495 145.86763371 270.83544922 154.26733398 C267.91484891 154.48519302 265.08631731 154.57877935 262.16308594 154.58618164 C260.81665512 154.60125008 260.81665512 154.60125008 259.44302368 154.61662292 C256.46706806 154.64758874 253.49120293 154.66452716 250.51513672 154.68139648 C248.45532444 154.70009736 246.39551991 154.71966995 244.33572388 154.74008179 C238.90733395 154.79152311 233.47891914 154.83108448 228.05041504 154.8682251 C222.51385282 154.90818968 216.97739512 154.95931635 211.44091797 155.00952148 C200.57250168 155.10642279 189.70402654 155.19078195 178.83544922 155.26733398 C180.38500907 152.09096972 181.94705747 148.92089935 183.51123047 145.75170898 C184.16146179 144.41825439 184.16146179 144.41825439 184.8248291 143.05786133 C188.74119523 135.14887159 193.38606291 128.18600875 198.83544922 121.26733398 C199.40521484 120.51452148 199.97498047 119.76170898 200.56201172 118.98608398 C211.56555168 105.32651713 227.80619658 97.10307546 244.14794922 91.82983398 C252.0190923 89.24582056 258.98138768 86.37239989 263.83544922 79.26733398 C268.85588295 68.75653947 269.33721345 52.9789617 266.14990234 41.88012695 C262.80226382 34.01773103 257.15212562 28.96873039 249.70664978 25.18569374 C245.66553715 23.89313506 241.80504942 23.86469812 237.58374023 23.76107788 C236.64846182 23.73078416 235.7131834 23.70049045 234.74956322 23.66927874 C231.61303062 23.56995872 228.47627518 23.4838629 225.33935547 23.39770508 C223.09010975 23.32922658 220.84088829 23.25994709 218.59169006 23.18992615 C212.47269636 23.00183297 206.35341744 22.825312 200.23401642 22.65104246 C193.80784636 22.4663168 187.38197269 22.27178188 180.95605469 22.07852173 C170.13852313 21.75464447 159.32080638 21.43784073 148.50292969 21.12573242 C137.43404589 20.80637458 126.36536739 20.48084496 115.296875 20.14819336 C114.61861534 20.12780984 113.94035568 20.10742632 113.2415427 20.08642511 C112.225739 20.05589646 112.225739 20.05589646 111.18941402 20.02475107 C97.88951249 19.62508514 84.58941831 19.23217004 71.28925705 18.84123278 C67.49262637 18.72922081 63.69603237 18.61603053 59.89944458 18.50257492 C44.54578036 18.04532317 29.19186534 17.62108844 13.83544922 17.26733398 C12.99607441 17.24718137 12.1566996 17.22702875 11.29188919 17.20626545 C6.38320528 17.08990428 1.47568116 17.00809742 -3.43408203 16.95336914 C-4.53468964 16.9290148 -5.63529724 16.90466045 -6.76925659 16.8795681 C-16.36563969 16.84312857 -23.4722187 19.68006465 -31.16455078 25.26733398 Z " fill="#000202" transform="translate(745.16455078125,-0.267333984375)"/>
<path d="M0 0 C1.00094696 0.01660675 2.00189392 0.0332135 3.03317261 0.05032349 C6.42138953 0.11341573 9.80789428 0.20810433 13.1953125 0.3046875 C15.66176487 0.36246979 18.12823706 0.41941098 20.59472656 0.47558594 C28.10525322 0.65711317 35.61413291 0.87945145 43.12321091 1.11199951 C45.35799944 1.18084855 47.59282517 1.24834204 49.82766724 1.31542969 C71.37407575 1.96277615 92.91537843 2.7086726 114.45507812 3.55200195 C135.46162018 4.37212465 156.47204316 5.05692215 177.4839325 5.72323608 C179.86043074 5.80033766 182.23683043 5.88054641 184.6131134 5.96401978 C190.67211309 6.17514612 196.72576744 6.33388171 202.78808594 6.40966797 C204.63489456 6.44537148 204.63489456 6.44537148 206.51901245 6.48179626 C208.85834005 6.52654919 211.19812106 6.55285873 213.53787231 6.55738831 C222.20560601 6.75695868 222.20560601 6.75695868 225.94970703 9.85180664 C226.69075684 10.66125732 227.43180664 11.47070801 228.1953125 12.3046875 C225.83082301 19.39815597 221.18921751 22.05983619 214.8203125 25.4296875 C190.20936762 38.91218076 168.17155483 59.06344754 151.1953125 81.3046875 C150.14537109 82.59439453 150.14537109 82.59439453 149.07421875 83.91015625 C135.69090235 100.63365954 123.86160388 119.15373562 113.53027344 137.89648438 C112.11064249 140.45742798 110.65736014 142.99762672 109.203125 145.5390625 C100.57724396 160.81461654 93.49910905 176.65596928 86.50610352 192.71961975 C82.56499051 201.77037058 78.5510802 210.78848737 74.53640747 219.80679321 C73.252943 222.69062885 71.97087353 225.57508082 70.68920898 228.4597168 C65.03592324 241.18178425 59.3591945 253.89320506 53.6678772 266.59829712 C46.94180203 281.61472978 40.25658986 296.64919076 33.58398438 311.68945312 C33.19791519 312.55470108 32.81184601 313.41994904 32.41407776 314.31141663 C31.62032355 316.10865739 30.8407084 317.91219766 30.07408142 319.72117615 C27.92394782 324.73180502 25.59454514 329.38219639 22.73071289 334.02563477 C8.94536702 357.78925174 11.53174895 384.41294062 12.03279006 411.04390126 C12.14367763 417.14170481 12.17264672 423.23860399 12.19322872 429.33726978 C12.21578716 435.87483674 12.28203326 442.41196754 12.34765625 448.94921875 C12.36121312 450.77926421 12.36121312 450.77926421 12.37504387 452.64628029 C12.52788212 468.99948783 12.98624428 484.84591209 20.8828125 499.6171875 C21.3921936 500.60126587 21.3921936 500.60126587 21.91186523 501.60522461 C25.24772113 507.8144879 29.42045475 513.12755236 34.1953125 518.3046875 C34.73414063 518.9234375 35.27296875 519.5421875 35.828125 520.1796875 C46.73920483 532.02286963 62.52143965 540.37105056 77.0078125 546.9921875 C80.27338507 548.58917914 81.19886922 549.30952859 83.4453125 552.3671875 C84.1953125 555.3046875 84.1953125 555.3046875 83.5703125 557.4296875 C82.8896875 558.3578125 82.8896875 558.3578125 82.1953125 559.3046875 C81.7608783 559.97611282 81.32644409 560.64753815 80.87884521 561.33930969 C78.89012583 563.66096636 77.83758059 564.00947334 74.88378906 564.62573242 C74.00739777 564.81694672 73.13100647 565.00816101 72.22805786 565.20516968 C71.27365814 565.39656525 70.31925842 565.58796082 69.3359375 565.78515625 C68.33601776 565.99927155 67.33609802 566.21338684 66.30587769 566.43399048 C63.02187392 567.13435935 59.73374998 567.81297178 56.4453125 568.4921875 C53.01729003 569.21865523 49.590511 569.95080645 46.16372681 570.68309021 C43.84965016 571.17710967 41.53517281 571.66925572 39.2203064 572.15956116 C29.69546536 574.17989625 20.20599481 576.33303653 10.72610474 578.5536499 C-1.93709099 581.51990226 -14.61523257 584.38016773 -27.33911133 587.07641602 C-49.21450794 591.71444889 -71.02541688 596.63318391 -92.79974365 601.72335815 C-120.60384392 608.22116598 -120.60384392 608.22116598 -133.15026855 611.02316284 C-134.53045519 611.33261153 -135.90995354 611.64514834 -137.28869629 611.96096802 C-139.16576574 612.39018907 -141.04571223 612.80677055 -142.92578125 613.22265625 C-143.9717749 613.45750732 -145.01776855 613.6923584 -146.09545898 613.93432617 C-149.69778057 614.42677655 -151.838176 613.72263842 -155.1171875 612.3046875 C-157.12970457 609.91948208 -157.15836063 609.05443892 -157.1171875 605.9921875 C-156.64720856 603.18587093 -156.22750808 601.73061705 -154.2109375 599.69921875 C-151.80574179 598.09725071 -149.33536391 596.70056266 -146.8046875 595.3046875 C-116.05124282 576.85262069 -94.68879139 549.13923961 -80.8046875 516.3046875 C-80.29035156 515.09683594 -79.77601563 513.88898437 -79.24609375 512.64453125 C-74.95887522 502.14842091 -72.70398492 491.45509098 -70.8046875 480.3046875 C-70.6281665 479.36141602 -70.45164551 478.41814453 -70.26977539 477.44628906 C-61.64643133 419.1968448 -92.58959212 359.80645622 -120.51953125 311.0859375 C-123.87920232 305.21075388 -127.10075164 299.26586821 -130.3046875 293.3046875 C-135.02997652 284.52753219 -139.8669838 275.82266645 -144.79125977 267.15576172 C-148.98483989 259.77080134 -153.12400408 252.35693622 -157.2421875 244.9296875 C-163.82876819 233.05472866 -170.44232244 221.19533294 -177.09179688 209.35546875 C-178.24511427 207.30132761 -179.39743923 205.24662898 -180.54882812 203.19140625 C-195.89519822 175.80562797 -211.67645298 152.50385299 -237.16064453 133.54296875 C-238.74987645 132.34597079 -240.30735 131.10716336 -241.86328125 129.8671875 C-249.89522986 123.48255573 -258.36626613 117.90739607 -267.0078125 112.3828125 C-267.79865234 111.87298828 -268.58949219 111.36316406 -269.40429688 110.83789062 C-271.04030681 109.79292089 -272.68809706 108.76622188 -274.34570312 107.75585938 C-275.15201172 107.25119141 -275.95832031 106.74652344 -276.7890625 106.2265625 C-277.51319336 105.7840918 -278.23732422 105.34162109 -278.98339844 104.88574219 C-281.26799605 102.90249097 -281.9486734 101.18112163 -282.8046875 98.3046875 C-282.5239207 94.46754123 -281.58821124 91.97459934 -278.8046875 89.3046875 C-275.92495235 88.86782542 -273.41178975 88.69274947 -270.5234375 88.68286133 C-269.2411868 88.65512965 -269.2411868 88.65512965 -267.93303204 88.62683773 C-265.05691801 88.56957719 -262.18121517 88.54073137 -259.3046875 88.51171875 C-257.24580575 88.47667838 -255.18695205 88.43995564 -253.12812805 88.40167236 C-247.52379569 88.30285702 -241.91939205 88.2292728 -236.31460953 88.16139603 C-231.63662134 88.10247535 -226.95885208 88.03136839 -222.28103733 87.96015835 C-211.22189072 87.79182236 -200.16259885 87.64317059 -189.10302734 87.50585938 C-177.60557063 87.36231874 -166.10909948 87.18183239 -154.61248589 86.98244953 C-144.68581179 86.81100605 -134.75897711 86.65837027 -124.83177376 86.52093792 C-118.88848949 86.43839287 -112.94555419 86.3483445 -107.00268555 86.23965454 C-101.40944951 86.13823341 -95.81640493 86.06138782 -90.22255516 86.00341034 C-88.16767845 85.97798609 -86.11288834 85.94386121 -84.05831337 85.90042877 C-81.25252923 85.84247475 -78.44812627 85.81586535 -75.6418457 85.79711914 C-74.82761642 85.77292813 -74.01338715 85.74873713 -73.17448425 85.72381306 C-68.97785918 85.73133152 -66.54268404 86.11646347 -63.25236511 88.83641052 C-62.4446315 89.65094193 -61.63689789 90.46547333 -60.8046875 91.3046875 C-61.43725205 94.48808875 -62.54916893 96.7732071 -64.28125 99.5078125 C-64.78398437 100.31524902 -65.28671875 101.12268555 -65.8046875 101.95458984 C-66.3409375 102.81262207 -66.8771875 103.6706543 -67.4296875 104.5546875 C-79.61273728 124.4928836 -85.97855443 143.62740424 -85.9921875 167.1171875 C-86.00443359 168.21611328 -86.01667969 169.31503906 -86.02929688 170.44726562 C-86.04855664 181.34187369 -84.60107804 191.37451497 -80.6796875 201.5546875 C-80.37329346 202.36333252 -80.06689941 203.17197754 -79.7512207 204.00512695 C-72.32178939 223.16168184 -61.67779217 240.35189272 -48.8046875 256.3046875 C-48.00675781 257.29597656 -47.20882812 258.28726562 -46.38671875 259.30859375 C-44.20980795 261.98871006 -42.01428037 264.65148612 -39.8046875 267.3046875 C-39.20269531 268.03171875 -38.60070312 268.75875 -37.98046875 269.5078125 C-35.28811601 272.87522771 -35.28811601 272.87522771 -31.8046875 275.3046875 C-31.52415527 274.57306396 -31.24362305 273.84144043 -30.95458984 273.08764648 C-29.90204047 270.54029823 -28.73420981 268.18964114 -27.40625 265.77734375 C-26.9333252 264.91471924 -26.46040039 264.05209473 -25.97314453 263.16333008 C-25.2091333 261.7792395 -25.2091333 261.7792395 -24.4296875 260.3671875 C-23.89585449 259.39354248 -23.36202148 258.41989746 -22.81201172 257.41674805 C-20.64361081 253.46213723 -18.46916296 249.51087357 -16.29296875 245.56054688 C-8.49064902 231.3887731 -0.92392066 217.10727565 6.45166016 202.70849609 C7.59419826 200.47813117 8.73960296 198.24923185 9.88818359 196.02197266 C22.31941024 171.87874157 33.34771543 147.33909076 41.1953125 121.3046875 C41.55109375 120.15323242 41.55109375 120.15323242 41.9140625 118.97851562 C47.6226442 100.20475735 46.15685981 84.23023562 37.03100586 66.99853516 C33.0767699 59.87367963 28.59699522 53.42238275 23.1953125 47.3046875 C22.54433594 46.54542969 21.89335937 45.78617188 21.22265625 45.00390625 C11.80350647 34.24670902 1.71914855 23.85708883 -9.6328125 15.13671875 C-12.57127933 12.65804799 -14.5421871 10.6171895 -15.3046875 6.8046875 C-14.8046875 4.3046875 -14.8046875 4.3046875 -12.88623047 2.16748047 C-8.52474985 -0.46903491 -4.99818757 -0.16209608 0 0 Z " fill="#000000" transform="translate(324.8046875,53.6953125)"/>
<path d="M0 0 C29.17728247 1.62676641 60.09536456 5.08757199 83 25 C83.69480469 25.58652344 84.38960937 26.17304688 85.10546875 26.77734375 C87.43661283 29.04447472 88.96019868 30.7593813 89.06738281 34.1003418 C88.9180127 35.26303589 88.9180127 35.26303589 88.765625 36.44921875 C88.59897339 37.7801355 88.59897339 37.7801355 88.42895508 39.13793945 C87.83479154 43.10229865 87.1609595 47.0513003 86.48803711 51.00292969 C81.69650187 80.35134864 83.2639582 108.92899331 89 138 C89.16516113 138.88155762 89.33032227 139.76311523 89.50048828 140.67138672 C95.7499847 173.62138941 112.03370306 205.80583118 134 231 C134.69609375 231.80566406 135.3921875 232.61132812 136.109375 233.44140625 C137.72904656 235.30402854 139.35785292 237.15720473 141 239 C128.27518109 264.34225537 108.5571322 291.33556209 80.98828125 301.34375 C80.00408203 301.66859375 80.00408203 301.66859375 79 302 C78.01 302.33 77.02 302.66 76 303 C73.89909979 303.08932308 71.79542123 303.11759269 69.69262695 303.11352539 C68.39150467 303.11344986 67.09038239 303.11337433 65.74983215 303.11329651 C64.3293148 303.10818985 62.90879783 303.10297385 61.48828125 303.09765625 C60.03525338 303.09579091 58.58222489 303.09436756 57.12919617 303.09336853 C53.30693828 303.08955246 49.48471845 303.07972993 45.66247559 303.06866455 C41.76131709 303.05843087 37.86015243 303.05386671 33.95898438 303.04882812 C26.30597224 303.03810686 18.65299146 303.02104135 11 303 C8.89296115 268.55327207 7.6551646 234.0632447 6.29673767 199.58095491 C5.97010784 191.29389064 5.63955017 183.00698429 5.30901909 174.72007489 C4.04291811 142.96080167 2.79646988 111.20098742 1.64624023 79.43727112 C1.57411904 77.4522377 1.50193641 75.46720651 1.4296875 73.48217773 C1.39540114 72.53691381 1.36111479 71.59164988 1.32578945 70.61774158 C1.14137168 65.60183629 0.94271833 60.58683902 0.72706604 55.57217407 C0.68119102 54.50330239 0.63531601 53.43443071 0.58805084 52.33316898 C0.50027969 50.3088546 0.41092682 48.28460784 0.31958771 46.26045132 C-0.09770714 36.67229758 -0.11309198 27.09529432 -0.0625 17.5 C-0.05745634 15.77864719 -0.05289868 14.05729289 -0.04882812 12.3359375 C-0.03809185 8.22391954 -0.02099926 4.11197781 0 0 Z M43 52 C43 57.28 43 62.56 43 68 C43.33 68 43.66 68 44 68 C44.66 62.72 45.32 57.44 46 52 C45.01 52 44.02 52 43 52 Z M46 132 C45.76438397 146.18268257 46.47992731 160.33020919 47.09375 174.49609375 C47.20612745 177.14265332 47.3182551 179.78922231 47.43005371 182.43580627 C47.6931374 188.65091896 47.95942287 194.86588999 48.22691298 201.08081442 C48.5317321 208.16677276 48.83289928 215.25288492 49.13378811 222.33901107 C49.7518489 236.89284618 50.3744036 251.44648689 51 266 C53.54283234 266.10871967 56.08095088 266.18762401 58.625 266.25 C59.33785156 266.28351563 60.05070313 266.31703125 60.78515625 266.3515625 C66.02397745 266.44768766 68.79278999 265.36780768 73 262 C73.75023437 261.40960938 74.50046875 260.81921875 75.2734375 260.2109375 C80.89275073 255.30187203 85.51873581 249.95873822 90 244 C88.59331305 239.86268545 86.46740102 236.40049519 84.16674805 232.72070312 C72.65512813 214.27294484 63.41611787 194.78129891 57 174 C56.73493652 173.15518066 56.46987305 172.31036133 56.19677734 171.43994141 C52.16228157 158.45124827 49.30751464 145.39715853 47 132 C46.67 132 46.34 132 46 132 Z " fill="#00FCFC" transform="translate(886,234)"/>
<path d="M0 0 C28.71335509 6.51436342 28.71335509 6.51436342 39 13 C39.19000561 17.75014031 38.86333671 22.06362224 38.0625 26.75 C35.28753474 45.18369779 35.31969357 64.45241376 37 83 C37.08233887 83.9163623 37.16467773 84.83272461 37.24951172 85.77685547 C41.32921951 128.45963316 55.95216371 169.59854503 80.6171875 204.671875 C81.23352051 205.55069336 81.23352051 205.55069336 81.86230469 206.44726562 C83.06893955 208.14237267 83.06893955 208.14237267 84.8828125 210.140625 C86 212 86 212 85.96875 214.36328125 C84.71366524 217.77933857 82.75589144 220.38283289 80.5 223.1875 C80.05293701 223.75484863 79.60587402 224.32219727 79.14526367 224.90673828 C74.98076217 230.13753441 70.5789664 235.12839289 66 240 C65.41734375 240.64710938 64.8346875 241.29421875 64.234375 241.9609375 C59.1814516 247.36803778 53.05567352 251.64810883 46 254 C43.2684044 254.08507079 40.56308557 254.11591565 37.83203125 254.09765625 C37.03721848 254.0962413 36.2424057 254.09482635 35.42350769 254.09336853 C32.88646675 254.08777378 30.34951425 254.07522228 27.8125 254.0625 C26.09179815 254.05748432 24.37109492 254.05292153 22.65039062 254.04882812 C18.4335597 254.03780607 14.21679484 254.02054506 10 254 C9.17761607 247.3382212 8.75658689 240.74566776 8.53515625 234.0390625 C8.49764755 232.99311417 8.46013885 231.94716583 8.42149353 230.86952209 C8.34109237 228.62451881 8.26207705 226.37946553 8.18432617 224.1343689 C7.97587519 218.12965431 7.7560602 212.12536146 7.53515625 206.12109375 C7.49073395 204.91163589 7.44631165 203.70217804 7.40054321 202.45606995 C7.00594711 191.86275458 6.51815865 181.27537024 6 170.6875 C5.05264597 151.26230239 4.35294673 131.83036865 3.69726562 112.39331055 C3.34515369 102.04242516 2.96069367 91.69997644 2.38269043 81.35914612 C1.80465334 70.78877541 1.44766623 60.20870756 1.07006836 49.62963867 C0.93758274 45.93980443 0.79994138 42.2501848 0.66210938 38.56054688 C0.19337695 25.70097458 -0.14351277 12.86831164 0 0 Z M18 23 C18 28.28 18 33.56 18 39 C18.33 39 18.66 39 19 39 C19.66 33.72 20.32 28.44 21 23 C20.01 23 19.02 23 18 23 Z M21 103 C20.76438397 117.18268257 21.47992731 131.33020919 22.09375 145.49609375 C22.20612745 148.14265332 22.3182551 150.78922231 22.43005371 153.43580627 C22.6931374 159.65091896 22.95942287 165.86588999 23.22691298 172.08081442 C23.5317321 179.16677276 23.83289928 186.25288492 24.13378811 193.33901107 C24.7518489 207.89284618 25.3744036 222.44648689 26 237 C28.54283234 237.10871967 31.08095088 237.18762401 33.625 237.25 C34.33785156 237.28351563 35.05070313 237.31703125 35.78515625 237.3515625 C41.02397745 237.44768766 43.79278999 236.36780768 48 233 C48.75023437 232.40960938 49.50046875 231.81921875 50.2734375 231.2109375 C55.89275073 226.30187203 60.51873581 220.95873822 65 215 C63.59331305 210.86268545 61.46740102 207.40049519 59.16674805 203.72070312 C47.65512813 185.27294484 38.41611787 165.78129891 32 145 C31.73493652 144.15518066 31.46987305 143.31036133 31.19677734 142.43994141 C27.16228157 129.45124827 24.30751464 116.39715853 22 103 C21.67 103 21.34 103 21 103 Z " fill="#000202" transform="translate(911,263)"/>
<path d="M0 0 C2.83181659 2.39727922 3.864883 3.3981152 4.6875 7.0625 C2.86671043 17.49065845 -5.63577104 25.18163357 -12.71875 32.54296875 C-31.98281546 52.6390563 -44.38724704 74.78580418 -55.56005859 100.03710938 C-66.47878186 124.65181366 -66.47878186 124.65181366 -72 128 C-74.4375 128.5625 -74.4375 128.5625 -77 128 C-82.36701713 123.16968459 -84.5316484 116.65155801 -87 110 C-87.34675781 109.07566162 -87.69351562 108.15132324 -88.05078125 107.19897461 C-89.67253086 101.73349488 -89.33854896 96.2259153 -89.3125 90.5625 C-89.30686035 89.30219971 -89.3012207 88.04189941 -89.29541016 86.7434082 C-88.92961628 58.68774228 -77.47904087 36.06665752 -57.67236328 16.60986328 C-42.48496672 1.99005409 -21.12941706 -9.45356222 0 0 Z " fill="#FDFDFD" transform="translate(1112,164)"/>
<path d="M0 0 C1.26541626 -0.0153479 1.26541626 -0.0153479 2.55639648 -0.03100586 C8.66451888 0.05475374 14.6345759 0.7788896 19.50073242 4.84985352 C20.8125 6.4375 20.8125 6.4375 21.375 9.5 C19.86231932 20.08876473 11.25835182 27.60261849 4.17236328 35.00976562 C1.27007675 38.05690596 -1.48260073 41.21499655 -4.1875 44.4375 C-4.62030273 44.94974121 -5.05310547 45.46198242 -5.49902344 45.98974609 C-18.7073612 61.71710886 -28.07935671 78.84471814 -36.3671875 97.58203125 C-36.64961304 98.21896912 -36.93203857 98.85590698 -37.22302246 99.512146 C-38.64321059 102.71825532 -40.0528187 105.92831359 -41.44433594 109.14697266 C-44.80350509 116.79407084 -48.20565892 124.45565892 -54.1875 130.4375 C-57 130.9375 -57 130.9375 -60.1875 130.4375 C-67.21211607 124.09821232 -71.71545139 112.97342757 -72.3918457 103.6081543 C-73.38707529 70.60432558 -65.89552399 45.77364646 -43.1875 21.4375 C-30.7529603 8.84467054 -17.98847634 0.16906771 0 0 Z " fill="#FDFDFD" transform="translate(574.1875,165.5625)"/>
<path d="M0 0 C39.93 0 79.86 0 121 0 C118.14127995 5.14569609 115.41897662 9.98610872 112.25 14.875 C104.66196848 27.12486564 98.84171807 40.44805545 94 54 C89.96710466 54 88.84972776 52.47402586 85.75 49.9375 C79.02816768 44.6554637 71.83067319 41.32738283 64 38 C63.16082031 37.61070312 62.32164062 37.22140625 61.45703125 36.8203125 C44.56581826 29.31956732 23.56442753 27.0006058 5.25366211 26.2902832 C0.1794688 26.0897344 0.1794688 26.0897344 -2 25 C-1.85756403 22.33311371 -1.71113422 19.66654233 -1.5625 17 C-1.50352539 15.88431641 -1.50352539 15.88431641 -1.44335938 14.74609375 C-1.40146484 14.00488281 -1.35957031 13.26367188 -1.31640625 12.5 C-1.27974854 11.8296875 -1.24309082 11.159375 -1.20532227 10.46875 C-0.91418668 6.96819942 -0.43568892 3.48551136 0 0 Z " fill="#00FBFB" transform="translate(888,192)"/>
<path d="M0 0 C10.28304538 -0.02312376 20.56608462 -0.04091525 30.84915066 -0.05181217 C35.6234828 -0.05704093 40.39779721 -0.06413844 45.17211914 -0.07543945 C49.77566262 -0.0862686 54.37918899 -0.09227689 58.98274422 -0.09487724 C60.74309623 -0.09673144 62.50344726 -0.10035196 64.26379204 -0.10573006 C66.72072277 -0.11294086 69.17758195 -0.11399093 71.63452148 -0.11352539 C72.73719109 -0.1189183 72.73719109 -0.1189183 73.86213684 -0.12442017 C78.88594784 -0.11405216 78.88594784 -0.11405216 80 1 C80.41091018 3.60643023 80.75793411 6.19323332 81.0625 8.8125 C81.15337891 9.51826172 81.24425781 10.22402344 81.33789062 10.95117188 C82.09046006 17.30557398 82.0915238 23.60757114 82 30 C81.30140869 30.17539307 80.60281738 30.35078613 79.88305664 30.53149414 C60.97328534 35.32532382 43.55539052 40.50534975 27 51 C24.86534113 48.32903824 23.37898496 45.85982391 22.125 42.68359375 C21.7849292 41.84570312 21.4448584 41.0078125 21.09448242 40.14453125 C20.73330322 39.25121094 20.37212402 38.35789063 20 37.4375 C16.84088541 29.83917609 13.33496991 22.60904889 9.1875 15.5 C8.73181641 14.71810303 8.27613281 13.93620605 7.80664062 13.13061523 C5.44243655 9.16517649 2.88815111 5.60850581 0 2 C0 1.34 0 0.68 0 0 Z " fill="#00FBFB" transform="translate(729,192)"/>
</svg>
